<mxfile host="app.diagrams.net" modified="2020-12-30T06:36:11.733Z" agent="5.0 (Windows NT 10.0; WOW64) AppleWebKit/537.36 (KHTML, like Gecko) Chrome/87.0.4280.88 Safari/537.36" etag="yGjIZ9AAI3P2EHioE_mY" version="14.1.3" type="github">
  <diagram id="5902n-foPaxJyTyFdvGW" name="Page-1">
    <mxGraphModel dx="1360" dy="802" grid="1" gridSize="10" guides="1" tooltips="1" connect="1" arrows="1" fold="1" page="1" pageScale="1" pageWidth="827" pageHeight="1169" math="0" shadow="0">
      <root>
        <mxCell id="0" />
        <mxCell id="1" parent="0" />
        <mxCell id="BFam_49dZInnmD_Xnitz-19" value="" style="edgeStyle=orthogonalEdgeStyle;rounded=0;orthogonalLoop=1;jettySize=auto;html=1;fillColor=#d5e8d4;strokeColor=#82b366;" edge="1" parent="1" source="BFam_49dZInnmD_Xnitz-16" target="BFam_49dZInnmD_Xnitz-18">
          <mxGeometry relative="1" as="geometry">
            <Array as="points">
              <mxPoint x="620" y="850" />
              <mxPoint x="620" y="850" />
            </Array>
          </mxGeometry>
        </mxCell>
        <mxCell id="BFam_49dZInnmD_Xnitz-17" value="" style="edgeStyle=orthogonalEdgeStyle;rounded=0;orthogonalLoop=1;jettySize=auto;html=1;fillColor=#d5e8d4;strokeColor=#82b366;" edge="1" parent="1" source="BFam_49dZInnmD_Xnitz-15" target="BFam_49dZInnmD_Xnitz-16">
          <mxGeometry relative="1" as="geometry" />
        </mxCell>
        <mxCell id="BFam_49dZInnmD_Xnitz-15" value="New新建" style="ellipse;whiteSpace=wrap;html=1;" vertex="1" parent="1">
          <mxGeometry x="350" y="650" width="120" height="80" as="geometry" />
        </mxCell>
        <mxCell id="BFam_49dZInnmD_Xnitz-16" value="Runnable就绪" style="ellipse;whiteSpace=wrap;html=1;fillColor=#d5e8d4;strokeColor=#82b366;" vertex="1" parent="1">
          <mxGeometry x="350" y="830" width="120" height="80" as="geometry" />
        </mxCell>
        <mxCell id="BFam_49dZInnmD_Xnitz-23" style="edgeStyle=orthogonalEdgeStyle;rounded=0;orthogonalLoop=1;jettySize=auto;html=1;entryX=0.992;entryY=0.738;entryDx=0;entryDy=0;entryPerimeter=0;fillColor=#d5e8d4;strokeColor=#82b366;" edge="1" parent="1" source="BFam_49dZInnmD_Xnitz-18" target="BFam_49dZInnmD_Xnitz-16">
          <mxGeometry relative="1" as="geometry">
            <Array as="points">
              <mxPoint x="620" y="890" />
              <mxPoint x="620" y="890" />
            </Array>
          </mxGeometry>
        </mxCell>
        <mxCell id="BFam_49dZInnmD_Xnitz-27" value="" style="edgeStyle=orthogonalEdgeStyle;rounded=0;orthogonalLoop=1;jettySize=auto;html=1;" edge="1" parent="1" source="BFam_49dZInnmD_Xnitz-18" target="BFam_49dZInnmD_Xnitz-26">
          <mxGeometry relative="1" as="geometry" />
        </mxCell>
        <mxCell id="BFam_49dZInnmD_Xnitz-36" value="" style="edgeStyle=none;rounded=0;orthogonalLoop=1;jettySize=auto;html=1;" edge="1" parent="1" source="BFam_49dZInnmD_Xnitz-18" target="BFam_49dZInnmD_Xnitz-35">
          <mxGeometry relative="1" as="geometry" />
        </mxCell>
        <mxCell id="BFam_49dZInnmD_Xnitz-38" style="edgeStyle=none;rounded=0;orthogonalLoop=1;jettySize=auto;html=1;exitX=0;exitY=1;exitDx=0;exitDy=0;" edge="1" parent="1" source="BFam_49dZInnmD_Xnitz-18" target="BFam_49dZInnmD_Xnitz-39">
          <mxGeometry relative="1" as="geometry">
            <mxPoint x="550" y="1030" as="targetPoint" />
          </mxGeometry>
        </mxCell>
        <mxCell id="BFam_49dZInnmD_Xnitz-41" style="edgeStyle=none;rounded=0;orthogonalLoop=1;jettySize=auto;html=1;exitX=1;exitY=1;exitDx=0;exitDy=0;" edge="1" parent="1" source="BFam_49dZInnmD_Xnitz-18" target="BFam_49dZInnmD_Xnitz-42">
          <mxGeometry relative="1" as="geometry">
            <mxPoint x="920" y="1000" as="targetPoint" />
          </mxGeometry>
        </mxCell>
        <mxCell id="BFam_49dZInnmD_Xnitz-18" value="Running运行" style="ellipse;whiteSpace=wrap;html=1;fillColor=#008a00;strokeColor=#005700;fontColor=#ffffff;" vertex="1" parent="1">
          <mxGeometry x="690" y="830" width="120" height="80" as="geometry" />
        </mxCell>
        <mxCell id="BFam_49dZInnmD_Xnitz-20" value="得到CPU时间片" style="text;html=1;align=center;verticalAlign=middle;resizable=0;points=[];autosize=1;" vertex="1" parent="1">
          <mxGeometry x="520" y="830" width="100" height="20" as="geometry" />
        </mxCell>
        <mxCell id="BFam_49dZInnmD_Xnitz-21" value="start()" style="text;html=1;align=center;verticalAlign=middle;resizable=0;points=[];autosize=1;" vertex="1" parent="1">
          <mxGeometry x="409" y="780" width="50" height="20" as="geometry" />
        </mxCell>
        <mxCell id="BFam_49dZInnmD_Xnitz-25" value="yield()" style="text;html=1;align=center;verticalAlign=middle;resizable=0;points=[];autosize=1;" vertex="1" parent="1">
          <mxGeometry x="545" y="890" width="50" height="20" as="geometry" />
        </mxCell>
        <mxCell id="BFam_49dZInnmD_Xnitz-33" style="edgeStyle=none;rounded=0;orthogonalLoop=1;jettySize=auto;html=1;exitX=0;exitY=0.5;exitDx=0;exitDy=0;entryX=1;entryY=0;entryDx=0;entryDy=0;" edge="1" parent="1" source="BFam_49dZInnmD_Xnitz-26" target="BFam_49dZInnmD_Xnitz-16">
          <mxGeometry relative="1" as="geometry" />
        </mxCell>
        <mxCell id="BFam_49dZInnmD_Xnitz-26" value="Blocked阻塞" style="ellipse;whiteSpace=wrap;html=1;fillColor=#e51400;strokeColor=#B20000;fontColor=#ffffff;" vertex="1" parent="1">
          <mxGeometry x="690" y="640" width="120" height="80" as="geometry" />
        </mxCell>
        <mxCell id="BFam_49dZInnmD_Xnitz-28" value="sleep()&lt;br&gt;&lt;br&gt;join()" style="text;html=1;align=center;verticalAlign=middle;resizable=0;points=[];autosize=1;" vertex="1" parent="1">
          <mxGeometry x="745" y="765" width="50" height="50" as="geometry" />
        </mxCell>
        <mxCell id="BFam_49dZInnmD_Xnitz-34" value="sleep()结束&lt;br&gt;&lt;br&gt;join()结束&lt;br&gt;&lt;br&gt;IO操作结束" style="text;html=1;align=center;verticalAlign=middle;resizable=0;points=[];autosize=1;" vertex="1" parent="1">
          <mxGeometry x="545" y="710" width="80" height="80" as="geometry" />
        </mxCell>
        <mxCell id="BFam_49dZInnmD_Xnitz-35" value="Dead结束" style="ellipse;whiteSpace=wrap;html=1;fillColor=#76608a;strokeColor=#432D57;fontColor=#ffffff;" vertex="1" parent="1">
          <mxGeometry x="1010" y="830" width="120" height="80" as="geometry" />
        </mxCell>
        <mxCell id="BFam_49dZInnmD_Xnitz-37" value="正常结束/异常退出" style="text;html=1;align=center;verticalAlign=middle;resizable=0;points=[];autosize=1;" vertex="1" parent="1">
          <mxGeometry x="850" y="850" width="110" height="20" as="geometry" />
        </mxCell>
        <mxCell id="BFam_49dZInnmD_Xnitz-44" style="edgeStyle=none;rounded=0;orthogonalLoop=1;jettySize=auto;html=1;exitX=1;exitY=0.5;exitDx=0;exitDy=0;entryX=0;entryY=0.5;entryDx=0;entryDy=0;" edge="1" parent="1" source="BFam_49dZInnmD_Xnitz-39" target="BFam_49dZInnmD_Xnitz-42">
          <mxGeometry relative="1" as="geometry" />
        </mxCell>
        <mxCell id="BFam_49dZInnmD_Xnitz-39" value="Blocked阻塞&lt;br&gt;等待" style="ellipse;whiteSpace=wrap;html=1;fillColor=#e51400;strokeColor=#B20000;fontColor=#ffffff;" vertex="1" parent="1">
          <mxGeometry x="490" y="990" width="120" height="80" as="geometry" />
        </mxCell>
        <mxCell id="BFam_49dZInnmD_Xnitz-40" value="wait()" style="text;html=1;align=center;verticalAlign=middle;resizable=0;points=[];autosize=1;" vertex="1" parent="1">
          <mxGeometry x="606" y="930" width="40" height="20" as="geometry" />
        </mxCell>
        <mxCell id="BFam_49dZInnmD_Xnitz-49" style="edgeStyle=orthogonalEdgeStyle;rounded=0;orthogonalLoop=1;jettySize=auto;html=1;exitX=0.5;exitY=1;exitDx=0;exitDy=0;entryX=0.433;entryY=1.038;entryDx=0;entryDy=0;entryPerimeter=0;" edge="1" parent="1" source="BFam_49dZInnmD_Xnitz-42" target="BFam_49dZInnmD_Xnitz-16">
          <mxGeometry relative="1" as="geometry" />
        </mxCell>
        <mxCell id="BFam_49dZInnmD_Xnitz-42" value="Blocked阻塞&lt;br&gt;锁定" style="ellipse;whiteSpace=wrap;html=1;fillColor=#e51400;strokeColor=#B20000;fontColor=#ffffff;" vertex="1" parent="1">
          <mxGeometry x="870" y="990" width="120" height="80" as="geometry" />
        </mxCell>
        <mxCell id="BFam_49dZInnmD_Xnitz-43" value="synchronized" style="text;html=1;align=center;verticalAlign=middle;resizable=0;points=[];autosize=1;" vertex="1" parent="1">
          <mxGeometry x="845" y="930" width="90" height="20" as="geometry" />
        </mxCell>
        <mxCell id="BFam_49dZInnmD_Xnitz-45" value="notify()/notifyAll()" style="text;html=1;align=center;verticalAlign=middle;resizable=0;points=[];autosize=1;" vertex="1" parent="1">
          <mxGeometry x="655" y="1010" width="110" height="20" as="geometry" />
        </mxCell>
        <mxCell id="BFam_49dZInnmD_Xnitz-46" value="interrupt()" style="text;html=1;align=center;verticalAlign=middle;resizable=0;points=[];autosize=1;" vertex="1" parent="1">
          <mxGeometry x="685" y="1030" width="70" height="20" as="geometry" />
        </mxCell>
        <mxCell id="BFam_49dZInnmD_Xnitz-50" value="获取到锁" style="text;html=1;align=center;verticalAlign=middle;resizable=0;points=[];autosize=1;" vertex="1" parent="1">
          <mxGeometry x="640" y="1090" width="60" height="20" as="geometry" />
        </mxCell>
      </root>
    </mxGraphModel>
  </diagram>
</mxfile>
